<?xml version="1.0" encoding="UTF-8" standalone="no"?>
<!DOCTYPE svg PUBLIC "-//W3C//DTD SVG 1.1//EN"
 "http://www.w3.org/Graphics/SVG/1.1/DTD/svg11.dtd">
<!-- Generated by graphviz version 2.38.0 (20140413.2041)
 -->
<!-- Title: GoERD Pages: 1 -->
<svg width="1215pt" height="681pt"
 viewBox="0.00 0.00 1214.50 681.00" xmlns="http://www.w3.org/2000/svg" xmlns:xlink="http://www.w3.org/1999/xlink">
<g id="graph0" class="graph" transform="scale(1 1) rotate(0) translate(4 677)">
<title>GoERD</title>
<polygon fill="white" stroke="none" points="-4,4 -4,-677 1210.5,-677 1210.5,4 -4,4"/>
<!-- node&#45;AppliedSingleItemDiscount -->
<g id="node1" class="node"><title>node&#45;AppliedSingleItemDiscount</title>
<polygon fill="none" stroke="black" points="0,-23.5 0,-161.5 192,-161.5 192,-23.5 0,-23.5"/>
<text text-anchor="middle" x="96" y="-146.3" font-family="Times New Roman,serif" font-size="14.00">AppliedSingleItemDiscount</text>
<polyline fill="none" stroke="black" points="0,-138.5 192,-138.5 "/>
<text text-anchor="middle" x="96" y="-123.3" font-family="Times New Roman,serif" font-size="14.00">gorm.Model</text>
<polyline fill="none" stroke="black" points="0,-115.5 192,-115.5 "/>
<text text-anchor="middle" x="96" y="-100.3" font-family="Times New Roman,serif" font-size="14.00">CartID uint</text>
<polyline fill="none" stroke="black" points="0,-92.5 192,-92.5 "/>
<text text-anchor="middle" x="96" y="-77.3" font-family="Times New Roman,serif" font-size="14.00">SingleItemDiscountID uint</text>
<polyline fill="none" stroke="black" points="0,-69.5 192,-69.5 "/>
<text text-anchor="middle" x="96" y="-54.3" font-family="Times New Roman,serif" font-size="14.00">SingleItemDiscountName string</text>
<polyline fill="none" stroke="black" points="0,-46.5 192,-46.5 "/>
<text text-anchor="middle" x="96" y="-31.3" font-family="Times New Roman,serif" font-size="14.00">Savings float64</text>
</g>
<!-- node&#45;DualItemDiscount -->
<g id="node2" class="node"><title>node&#45;DualItemDiscount</title>
<polygon fill="none" stroke="black" points="615.5,-244.5 615.5,-451.5 732.5,-451.5 732.5,-244.5 615.5,-244.5"/>
<text text-anchor="middle" x="674" y="-436.3" font-family="Times New Roman,serif" font-size="14.00">DualItemDiscount</text>
<polyline fill="none" stroke="black" points="615.5,-428.5 732.5,-428.5 "/>
<text text-anchor="middle" x="674" y="-413.3" font-family="Times New Roman,serif" font-size="14.00">gorm.Model</text>
<polyline fill="none" stroke="black" points="615.5,-405.5 732.5,-405.5 "/>
<text text-anchor="middle" x="674" y="-390.3" font-family="Times New Roman,serif" font-size="14.00">Name string</text>
<polyline fill="none" stroke="black" points="615.5,-382.5 732.5,-382.5 "/>
<text text-anchor="middle" x="674" y="-367.3" font-family="Times New Roman,serif" font-size="14.00">FruitID uint</text>
<polyline fill="none" stroke="black" points="615.5,-359.5 732.5,-359.5 "/>
<text text-anchor="middle" x="674" y="-344.3" font-family="Times New Roman,serif" font-size="14.00">FruitID_1 uint</text>
<polyline fill="none" stroke="black" points="615.5,-336.5 732.5,-336.5 "/>
<text text-anchor="middle" x="674" y="-321.3" font-family="Times New Roman,serif" font-size="14.00">FruitID_2 uint</text>
<polyline fill="none" stroke="black" points="615.5,-313.5 732.5,-313.5 "/>
<text text-anchor="middle" x="674" y="-298.3" font-family="Times New Roman,serif" font-size="14.00">Count_1 int</text>
<polyline fill="none" stroke="black" points="615.5,-290.5 732.5,-290.5 "/>
<text text-anchor="middle" x="674" y="-275.3" font-family="Times New Roman,serif" font-size="14.00">Count_2 int</text>
<polyline fill="none" stroke="black" points="615.5,-267.5 732.5,-267.5 "/>
<text text-anchor="middle" x="674" y="-252.3" font-family="Times New Roman,serif" font-size="14.00">Discount int</text>
</g>
<!-- node&#45;Payment -->
<g id="node3" class="node"><title>node&#45;Payment</title>
<polygon fill="none" stroke="black" points="210,-23.5 210,-161.5 320,-161.5 320,-23.5 210,-23.5"/>
<text text-anchor="middle" x="265" y="-146.3" font-family="Times New Roman,serif" font-size="14.00">Payment</text>
<polyline fill="none" stroke="black" points="210,-138.5 320,-138.5 "/>
<text text-anchor="middle" x="265" y="-123.3" font-family="Times New Roman,serif" font-size="14.00">ID uint</text>
<polyline fill="none" stroke="black" points="210,-115.5 320,-115.5 "/>
<text text-anchor="middle" x="265" y="-100.3" font-family="Times New Roman,serif" font-size="14.00">CustomerID uint</text>
<polyline fill="none" stroke="black" points="210,-92.5 320,-92.5 "/>
<text text-anchor="middle" x="265" y="-77.3" font-family="Times New Roman,serif" font-size="14.00">CartId uint</text>
<polyline fill="none" stroke="black" points="210,-69.5 320,-69.5 "/>
<text text-anchor="middle" x="265" y="-54.3" font-family="Times New Roman,serif" font-size="14.00">Amount float64</text>
<polyline fill="none" stroke="black" points="210,-46.5 320,-46.5 "/>
<text text-anchor="middle" x="265" y="-31.3" font-family="Times New Roman,serif" font-size="14.00">Status string</text>
</g>
<!-- node&#45;AppliedDualItemDiscount -->
<g id="node4" class="node"><title>node&#45;AppliedDualItemDiscount</title>
<polygon fill="none" stroke="black" points="338,-23.5 338,-161.5 522,-161.5 522,-23.5 338,-23.5"/>
<text text-anchor="middle" x="430" y="-146.3" font-family="Times New Roman,serif" font-size="14.00">AppliedDualItemDiscount</text>
<polyline fill="none" stroke="black" points="338,-138.5 522,-138.5 "/>
<text text-anchor="middle" x="430" y="-123.3" font-family="Times New Roman,serif" font-size="14.00">gorm.Model</text>
<polyline fill="none" stroke="black" points="338,-115.5 522,-115.5 "/>
<text text-anchor="middle" x="430" y="-100.3" font-family="Times New Roman,serif" font-size="14.00">CartID uint</text>
<polyline fill="none" stroke="black" points="338,-92.5 522,-92.5 "/>
<text text-anchor="middle" x="430" y="-77.3" font-family="Times New Roman,serif" font-size="14.00">DualItemDiscountID uint</text>
<polyline fill="none" stroke="black" points="338,-69.5 522,-69.5 "/>
<text text-anchor="middle" x="430" y="-54.3" font-family="Times New Roman,serif" font-size="14.00">DualItemDiscountName string</text>
<polyline fill="none" stroke="black" points="338,-46.5 522,-46.5 "/>
<text text-anchor="middle" x="430" y="-31.3" font-family="Times New Roman,serif" font-size="14.00">Savings float64</text>
</g>
<!-- node&#45;CartItemResponse -->
<g id="node5" class="node"><title>node&#45;CartItemResponse</title>
<polygon fill="none" stroke="black" points="952.5,-511.5 952.5,-672.5 1081.5,-672.5 1081.5,-511.5 952.5,-511.5"/>
<text text-anchor="middle" x="1017" y="-657.3" font-family="Times New Roman,serif" font-size="14.00">CartItemResponse</text>
<polyline fill="none" stroke="black" points="952.5,-649.5 1081.5,-649.5 "/>
<text text-anchor="middle" x="1017" y="-634.3" font-family="Times New Roman,serif" font-size="14.00">ID uint</text>
<polyline fill="none" stroke="black" points="952.5,-626.5 1081.5,-626.5 "/>
<text text-anchor="middle" x="1017" y="-611.3" font-family="Times New Roman,serif" font-size="14.00">CartID uint</text>
<polyline fill="none" stroke="black" points="952.5,-603.5 1081.5,-603.5 "/>
<text text-anchor="middle" x="1017" y="-588.3" font-family="Times New Roman,serif" font-size="14.00">Name string</text>
<polyline fill="none" stroke="black" points="952.5,-580.5 1081.5,-580.5 "/>
<text text-anchor="middle" x="1017" y="-565.3" font-family="Times New Roman,serif" font-size="14.00">CostPerItem float64</text>
<polyline fill="none" stroke="black" points="952.5,-557.5 1081.5,-557.5 "/>
<text text-anchor="middle" x="1017" y="-542.3" font-family="Times New Roman,serif" font-size="14.00">Count int</text>
<polyline fill="none" stroke="black" points="952.5,-534.5 1081.5,-534.5 "/>
<text text-anchor="middle" x="1017" y="-519.3" font-family="Times New Roman,serif" font-size="14.00">ItemTotal float64</text>
</g>
<!-- node&#45;Customer -->
<g id="node6" class="node"><title>node&#45;Customer</title>
<polygon fill="none" stroke="black" points="375.5,-523 375.5,-661 484.5,-661 484.5,-523 375.5,-523"/>
<text text-anchor="middle" x="430" y="-645.8" font-family="Times New Roman,serif" font-size="14.00">Customer</text>
<polyline fill="none" stroke="black" points="375.5,-638 484.5,-638 "/>
<text text-anchor="middle" x="430" y="-622.8" font-family="Times New Roman,serif" font-size="14.00">LoginID string</text>
<polyline fill="none" stroke="black" points="375.5,-615 484.5,-615 "/>
<text text-anchor="middle" x="430" y="-599.8" font-family="Times New Roman,serif" font-size="14.00">FirstName string</text>
<polyline fill="none" stroke="black" points="375.5,-592 484.5,-592 "/>
<text text-anchor="middle" x="430" y="-576.8" font-family="Times New Roman,serif" font-size="14.00">LastName string</text>
<polyline fill="none" stroke="black" points="375.5,-569 484.5,-569 "/>
<text text-anchor="middle" x="430" y="-553.8" font-family="Times New Roman,serif" font-size="14.00">Cart Cart</text>
<polyline fill="none" stroke="black" points="375.5,-546 484.5,-546 "/>
<text text-anchor="middle" x="430" y="-530.8" font-family="Times New Roman,serif" font-size="14.00">gorm.Model</text>
</g>
<!-- node&#45;Cart -->
<g id="node11" class="node"><title>node&#45;Cart</title>
<polygon fill="none" stroke="black" points="262.5,-221.5 262.5,-474.5 597.5,-474.5 597.5,-221.5 262.5,-221.5"/>
<text text-anchor="middle" x="430" y="-459.3" font-family="Times New Roman,serif" font-size="14.00">Cart</text>
<polyline fill="none" stroke="black" points="262.5,-451.5 597.5,-451.5 "/>
<text text-anchor="middle" x="430" y="-436.3" font-family="Times New Roman,serif" font-size="14.00">gorm.Model</text>
<polyline fill="none" stroke="black" points="262.5,-428.5 597.5,-428.5 "/>
<text text-anchor="middle" x="430" y="-413.3" font-family="Times New Roman,serif" font-size="14.00">CustomerId uint</text>
<polyline fill="none" stroke="black" points="262.5,-405.5 597.5,-405.5 "/>
<text text-anchor="middle" x="430" y="-390.3" font-family="Times New Roman,serif" font-size="14.00">Total float64</text>
<polyline fill="none" stroke="black" points="262.5,-382.5 597.5,-382.5 "/>
<text text-anchor="middle" x="430" y="-367.3" font-family="Times New Roman,serif" font-size="14.00">TotalSavings float64</text>
<polyline fill="none" stroke="black" points="262.5,-359.5 597.5,-359.5 "/>
<text text-anchor="middle" x="430" y="-344.3" font-family="Times New Roman,serif" font-size="14.00">Status string</text>
<polyline fill="none" stroke="black" points="262.5,-336.5 597.5,-336.5 "/>
<text text-anchor="middle" x="430" y="-321.3" font-family="Times New Roman,serif" font-size="14.00">CartItem []CartItem</text>
<polyline fill="none" stroke="black" points="262.5,-313.5 597.5,-313.5 "/>
<text text-anchor="middle" x="430" y="-298.3" font-family="Times New Roman,serif" font-size="14.00">Payment Payment</text>
<polyline fill="none" stroke="black" points="262.5,-290.5 597.5,-290.5 "/>
<text text-anchor="middle" x="430" y="-275.3" font-family="Times New Roman,serif" font-size="14.00">AppliedDualItemDiscount []AppliedDualItemDiscount</text>
<polyline fill="none" stroke="black" points="262.5,-267.5 597.5,-267.5 "/>
<text text-anchor="middle" x="430" y="-252.3" font-family="Times New Roman,serif" font-size="14.00">AppliedSingleItemDiscount []AppliedSingleItemDiscount</text>
<polyline fill="none" stroke="black" points="262.5,-244.5 597.5,-244.5 "/>
<text text-anchor="middle" x="430" y="-229.3" font-family="Times New Roman,serif" font-size="14.00">AppliedSingleItemCoupon []AppliedSingleItemCoupon</text>
</g>
<!-- node&#45;Customer&#45;&gt;node&#45;Cart -->
<g id="edge1" class="edge"><title>node&#45;Customer:f3&#45;&gt;node&#45;Cart</title>
<path fill="none" stroke="black" d="M486,-557C524.164,-557 523.002,-523.947 507.803,-484.192"/>
<polygon fill="black" stroke="black" points="510.997,-482.755 504.007,-474.793 504.506,-485.376 510.997,-482.755"/>
</g>
<!-- node&#45;Discount -->
<g id="node7" class="node"><title>node&#45;Discount</title>
<polygon fill="none" stroke="black" points="1099.5,-534.5 1099.5,-649.5 1206.5,-649.5 1206.5,-534.5 1099.5,-534.5"/>
<text text-anchor="middle" x="1153" y="-634.3" font-family="Times New Roman,serif" font-size="14.00">Discount</text>
<polyline fill="none" stroke="black" points="1099.5,-626.5 1206.5,-626.5 "/>
<text text-anchor="middle" x="1153" y="-611.3" font-family="Times New Roman,serif" font-size="14.00">ID uint</text>
<polyline fill="none" stroke="black" points="1099.5,-603.5 1206.5,-603.5 "/>
<text text-anchor="middle" x="1153" y="-588.3" font-family="Times New Roman,serif" font-size="14.00">CustomerId uint</text>
<polyline fill="none" stroke="black" points="1099.5,-580.5 1206.5,-580.5 "/>
<text text-anchor="middle" x="1153" y="-565.3" font-family="Times New Roman,serif" font-size="14.00">Name string</text>
<polyline fill="none" stroke="black" points="1099.5,-557.5 1206.5,-557.5 "/>
<text text-anchor="middle" x="1153" y="-542.3" font-family="Times New Roman,serif" font-size="14.00">Status string</text>
</g>
<!-- node&#45;SingleItemCoupon -->
<g id="node8" class="node"><title>node&#45;SingleItemCoupon</title>
<polygon fill="none" stroke="black" points="750.5,-279 750.5,-417 871.5,-417 871.5,-279 750.5,-279"/>
<text text-anchor="middle" x="811" y="-401.8" font-family="Times New Roman,serif" font-size="14.00">SingleItemCoupon</text>
<polyline fill="none" stroke="black" points="750.5,-394 871.5,-394 "/>
<text text-anchor="middle" x="811" y="-378.8" font-family="Times New Roman,serif" font-size="14.00">gorm.Model</text>
<polyline fill="none" stroke="black" points="750.5,-371 871.5,-371 "/>
<text text-anchor="middle" x="811" y="-355.8" font-family="Times New Roman,serif" font-size="14.00">Name string</text>
<polyline fill="none" stroke="black" points="750.5,-348 871.5,-348 "/>
<text text-anchor="middle" x="811" y="-332.8" font-family="Times New Roman,serif" font-size="14.00">FruitID uint</text>
<polyline fill="none" stroke="black" points="750.5,-325 871.5,-325 "/>
<text text-anchor="middle" x="811" y="-309.8" font-family="Times New Roman,serif" font-size="14.00">Discount int</text>
<polyline fill="none" stroke="black" points="750.5,-302 871.5,-302 "/>
<text text-anchor="middle" x="811" y="-286.8" font-family="Times New Roman,serif" font-size="14.00">Duration int</text>
</g>
<!-- node&#45;SingleItemDiscount -->
<g id="node9" class="node"><title>node&#45;SingleItemDiscount</title>
<polygon fill="none" stroke="black" points="889.5,-279 889.5,-417 1014.5,-417 1014.5,-279 889.5,-279"/>
<text text-anchor="middle" x="952" y="-401.8" font-family="Times New Roman,serif" font-size="14.00">SingleItemDiscount</text>
<polyline fill="none" stroke="black" points="889.5,-394 1014.5,-394 "/>
<text text-anchor="middle" x="952" y="-378.8" font-family="Times New Roman,serif" font-size="14.00">gorm.Model</text>
<polyline fill="none" stroke="black" points="889.5,-371 1014.5,-371 "/>
<text text-anchor="middle" x="952" y="-355.8" font-family="Times New Roman,serif" font-size="14.00">Name string</text>
<polyline fill="none" stroke="black" points="889.5,-348 1014.5,-348 "/>
<text text-anchor="middle" x="952" y="-332.8" font-family="Times New Roman,serif" font-size="14.00">FruitID uint</text>
<polyline fill="none" stroke="black" points="889.5,-325 1014.5,-325 "/>
<text text-anchor="middle" x="952" y="-309.8" font-family="Times New Roman,serif" font-size="14.00">Count int</text>
<polyline fill="none" stroke="black" points="889.5,-302 1014.5,-302 "/>
<text text-anchor="middle" x="952" y="-286.8" font-family="Times New Roman,serif" font-size="14.00">Discount int</text>
</g>
<!-- node&#45;AppliedSingleItemCoupon -->
<g id="node10" class="node"><title>node&#45;AppliedSingleItemCoupon</title>
<polygon fill="none" stroke="black" points="540,-23.5 540,-161.5 728,-161.5 728,-23.5 540,-23.5"/>
<text text-anchor="middle" x="634" y="-146.3" font-family="Times New Roman,serif" font-size="14.00">AppliedSingleItemCoupon</text>
<polyline fill="none" stroke="black" points="540,-138.5 728,-138.5 "/>
<text text-anchor="middle" x="634" y="-123.3" font-family="Times New Roman,serif" font-size="14.00">gorm.Model</text>
<polyline fill="none" stroke="black" points="540,-115.5 728,-115.5 "/>
<text text-anchor="middle" x="634" y="-100.3" font-family="Times New Roman,serif" font-size="14.00">CartID uint</text>
<polyline fill="none" stroke="black" points="540,-92.5 728,-92.5 "/>
<text text-anchor="middle" x="634" y="-77.3" font-family="Times New Roman,serif" font-size="14.00">SingleItemCouponID uint</text>
<polyline fill="none" stroke="black" points="540,-69.5 728,-69.5 "/>
<text text-anchor="middle" x="634" y="-54.3" font-family="Times New Roman,serif" font-size="14.00">SingleItemCouponName string</text>
<polyline fill="none" stroke="black" points="540,-46.5 728,-46.5 "/>
<text text-anchor="middle" x="634" y="-31.3" font-family="Times New Roman,serif" font-size="14.00">Savings float64</text>
</g>
<!-- node&#45;Cart&#45;&gt;node&#45;AppliedSingleItemDiscount -->
<g id="edge5" class="edge"><title>node&#45;Cart:f8&#45;&gt;node&#45;AppliedSingleItemDiscount</title>
<path fill="none" stroke="black" d="M261,-256C207.665,-256 165.299,-212.366 136.856,-170.319"/>
<polygon fill="black" stroke="black" points="139.77,-168.38 131.354,-161.944 133.92,-172.223 139.77,-168.38"/>
</g>
<!-- node&#45;Cart&#45;&gt;node&#45;Payment -->
<g id="edge3" class="edge"><title>node&#45;Cart:f6&#45;&gt;node&#45;Payment</title>
<path fill="none" stroke="black" d="M261,-302C206.813,-302 217.353,-230.734 235.458,-171.532"/>
<polygon fill="black" stroke="black" points="238.866,-172.361 238.542,-161.771 232.191,-170.252 238.866,-172.361"/>
</g>
<!-- node&#45;Cart&#45;&gt;node&#45;AppliedDualItemDiscount -->
<g id="edge4" class="edge"><title>node&#45;Cart:f7&#45;&gt;node&#45;AppliedDualItemDiscount</title>
<path fill="none" stroke="black" d="M599,-279C605.445,-279 601.355,-226.503 598,-221 580.403,-192.137 558.619,-204.492 531,-185 523.618,-179.79 516.191,-174.099 508.896,-168.185"/>
<polygon fill="black" stroke="black" points="510.979,-165.366 501.042,-161.693 506.52,-170.762 510.979,-165.366"/>
</g>
<!-- node&#45;Cart&#45;&gt;node&#45;AppliedSingleItemCoupon -->
<g id="edge6" class="edge"><title>node&#45;Cart:f9&#45;&gt;node&#45;AppliedSingleItemCoupon</title>
<path fill="none" stroke="black" d="M599,-233C602.677,-233 610.382,-203.455 617.629,-171.56"/>
<polygon fill="black" stroke="black" points="621.086,-172.139 619.859,-161.615 614.256,-170.607 621.086,-172.139"/>
</g>
<!-- node&#45;CartItem -->
<g id="node12" class="node"><title>node&#45;CartItem</title>
<polygon fill="none" stroke="black" points="746,-0.5 746,-184.5 922,-184.5 922,-0.5 746,-0.5"/>
<text text-anchor="middle" x="834" y="-169.3" font-family="Times New Roman,serif" font-size="14.00">CartItem</text>
<polyline fill="none" stroke="black" points="746,-161.5 922,-161.5 "/>
<text text-anchor="middle" x="834" y="-146.3" font-family="Times New Roman,serif" font-size="14.00">ID uint</text>
<polyline fill="none" stroke="black" points="746,-138.5 922,-138.5 "/>
<text text-anchor="middle" x="834" y="-123.3" font-family="Times New Roman,serif" font-size="14.00">CartID uint</text>
<polyline fill="none" stroke="black" points="746,-115.5 922,-115.5 "/>
<text text-anchor="middle" x="834" y="-100.3" font-family="Times New Roman,serif" font-size="14.00">FruitID uint</text>
<polyline fill="none" stroke="black" points="746,-92.5 922,-92.5 "/>
<text text-anchor="middle" x="834" y="-77.3" font-family="Times New Roman,serif" font-size="14.00">Name string</text>
<polyline fill="none" stroke="black" points="746,-69.5 922,-69.5 "/>
<text text-anchor="middle" x="834" y="-54.3" font-family="Times New Roman,serif" font-size="14.00">Quantity int</text>
<polyline fill="none" stroke="black" points="746,-46.5 922,-46.5 "/>
<text text-anchor="middle" x="834" y="-31.3" font-family="Times New Roman,serif" font-size="14.00">ItemTotal float64</text>
<polyline fill="none" stroke="black" points="746,-23.5 922,-23.5 "/>
<text text-anchor="middle" x="834" y="-8.3" font-family="Times New Roman,serif" font-size="14.00">ItemDiscountedTotal float64</text>
</g>
<!-- node&#45;Cart&#45;&gt;node&#45;CartItem -->
<g id="edge2" class="edge"><title>node&#45;Cart:f5&#45;&gt;node&#45;CartItem</title>
<path fill="none" stroke="black" d="M599,-325C610.582,-325 598.673,-229.97 606,-221 644.197,-174.236 684.368,-214.593 737,-185 737.091,-184.949 737.183,-184.897 737.274,-184.845"/>
<polygon fill="black" stroke="black" points="738.953,-187.92 745.71,-179.76 735.339,-181.925 738.953,-187.92"/>
</g>
<!-- node&#45;Fruit -->
<g id="node13" class="node"><title>node&#45;Fruit</title>
<polygon fill="none" stroke="black" points="687.5,-511.5 687.5,-672.5 934.5,-672.5 934.5,-511.5 687.5,-511.5"/>
<text text-anchor="middle" x="811" y="-657.3" font-family="Times New Roman,serif" font-size="14.00">Fruit</text>
<polyline fill="none" stroke="black" points="687.5,-649.5 934.5,-649.5 "/>
<text text-anchor="middle" x="811" y="-634.3" font-family="Times New Roman,serif" font-size="14.00">gorm.Model</text>
<polyline fill="none" stroke="black" points="687.5,-626.5 934.5,-626.5 "/>
<text text-anchor="middle" x="811" y="-611.3" font-family="Times New Roman,serif" font-size="14.00">Name string</text>
<polyline fill="none" stroke="black" points="687.5,-603.5 934.5,-603.5 "/>
<text text-anchor="middle" x="811" y="-588.3" font-family="Times New Roman,serif" font-size="14.00">Price float64</text>
<polyline fill="none" stroke="black" points="687.5,-580.5 934.5,-580.5 "/>
<text text-anchor="middle" x="811" y="-565.3" font-family="Times New Roman,serif" font-size="14.00">SingleItemDiscount []SingleItemDiscount</text>
<polyline fill="none" stroke="black" points="687.5,-557.5 934.5,-557.5 "/>
<text text-anchor="middle" x="811" y="-542.3" font-family="Times New Roman,serif" font-size="14.00">SingleItemCoupon []SingleItemCoupon</text>
<polyline fill="none" stroke="black" points="687.5,-534.5 934.5,-534.5 "/>
<text text-anchor="middle" x="811" y="-519.3" font-family="Times New Roman,serif" font-size="14.00">DualItemDiscount []DualItemDiscount</text>
</g>
<!-- node&#45;Fruit&#45;&gt;node&#45;DualItemDiscount -->
<g id="edge9" class="edge"><title>node&#45;Fruit:f5&#45;&gt;node&#45;DualItemDiscount</title>
<path fill="none" stroke="black" d="M686,-523C654.995,-523 646.873,-495.164 648.288,-461.759"/>
<polygon fill="black" stroke="black" points="651.784,-461.941 648.973,-451.725 644.8,-461.464 651.784,-461.941"/>
</g>
<!-- node&#45;Fruit&#45;&gt;node&#45;SingleItemCoupon -->
<g id="edge8" class="edge"><title>node&#45;Fruit:f4&#45;&gt;node&#45;SingleItemCoupon</title>
<path fill="none" stroke="black" d="M936,-546C943.781,-546 938.769,-517.807 935,-511 921.028,-485.766 900.555,-496.204 881,-475 867.709,-460.588 855.997,-443.197 846.143,-425.999"/>
<polygon fill="black" stroke="black" points="849.08,-424.078 841.16,-417.04 842.962,-427.481 849.08,-424.078"/>
</g>
<!-- node&#45;Fruit&#45;&gt;node&#45;SingleItemDiscount -->
<g id="edge7" class="edge"><title>node&#45;Fruit:f3&#45;&gt;node&#45;SingleItemDiscount</title>
<path fill="none" stroke="black" d="M936,-569C939.663,-569 944.666,-490.354 948.096,-427.107"/>
<polygon fill="black" stroke="black" points="951.592,-427.276 948.633,-417.103 944.602,-426.901 951.592,-427.276"/>
</g>
</g>
</svg>
